<svg width="228" height="32" viewBox="0 0 228 32" fill="none" xmlns="http://www.w3.org/2000/svg">
<rect width="104" height="32" rx="3" fill="#2D2D2F"/>
<path d="M37.9239 21.944C37.2039 22.688 36.3759 23.06 35.4399 23.06C34.8719 23.06 34.3439 22.944 33.8559 22.712C33.3679 22.472 32.9439 22.152 32.5839 21.752C32.2239 21.352 31.9399 20.888 31.7319 20.36C31.5319 19.832 31.4319 19.28 31.4319 18.704C31.4319 18.128 31.5319 17.58 31.7319 17.06C31.9399 16.54 32.2239 16.084 32.5839 15.692C32.9439 15.3 33.3719 14.992 33.8679 14.768C34.3639 14.536 34.9039 14.42 35.4879 14.42C36.3039 14.42 36.9879 14.592 37.5399 14.936C38.0919 15.272 38.5079 15.72 38.7879 16.28L37.7559 17.024C37.5239 16.56 37.2039 16.212 36.7959 15.98C36.3879 15.748 35.9399 15.632 35.4519 15.632C35.0519 15.632 34.6879 15.72 34.3599 15.896C34.0319 16.064 33.7519 16.292 33.5199 16.58C33.2879 16.86 33.1079 17.188 32.9799 17.564C32.8599 17.94 32.7999 18.332 32.7999 18.74C32.7999 19.172 32.8679 19.576 33.0039 19.952C33.1479 20.328 33.3399 20.656 33.5799 20.936C33.8279 21.216 34.1199 21.44 34.4559 21.608C34.7919 21.768 35.1559 21.848 35.5479 21.848C35.9799 21.848 36.3919 21.748 36.7839 21.548C37.1839 21.348 37.5639 21.032 37.9239 20.6V19.688H36.1359V18.692H39.0519V23H37.9239V21.944Z" fill="white"/>
<path d="M43.2369 23.12C42.7409 23.12 42.2929 23.032 41.8929 22.856C41.5009 22.68 41.1649 22.444 40.8849 22.148C40.6049 21.852 40.3889 21.508 40.2369 21.116C40.0849 20.716 40.0089 20.3 40.0089 19.868C40.0089 19.436 40.0849 19.024 40.2369 18.632C40.3889 18.232 40.6049 17.884 40.8849 17.588C41.1729 17.292 41.5129 17.056 41.9049 16.88C42.3049 16.704 42.7489 16.616 43.2369 16.616C43.7249 16.616 44.1649 16.704 44.5569 16.88C44.9569 17.056 45.2969 17.292 45.5769 17.588C45.8649 17.884 46.0849 18.232 46.2369 18.632C46.3889 19.024 46.4649 19.436 46.4649 19.868C46.4649 20.3 46.3889 20.716 46.2369 21.116C46.0849 21.508 45.8649 21.852 45.5769 22.148C45.2969 22.444 44.9569 22.68 44.5569 22.856C44.1649 23.032 43.7249 23.12 43.2369 23.12ZM41.3649 19.88C41.3649 20.184 41.4129 20.464 41.5089 20.72C41.6049 20.976 41.7369 21.2 41.9049 21.392C42.0729 21.576 42.2689 21.724 42.4929 21.836C42.7249 21.94 42.9729 21.992 43.2369 21.992C43.5009 21.992 43.7449 21.94 43.9689 21.836C44.2009 21.724 44.4009 21.572 44.5689 21.38C44.7369 21.188 44.8689 20.964 44.9649 20.708C45.0609 20.452 45.1089 20.172 45.1089 19.868C45.1089 19.572 45.0609 19.296 44.9649 19.04C44.8689 18.776 44.7369 18.548 44.5689 18.356C44.4009 18.164 44.2009 18.016 43.9689 17.912C43.7449 17.8 43.5009 17.744 43.2369 17.744C42.9809 17.744 42.7369 17.8 42.5049 17.912C42.2809 18.024 42.0849 18.176 41.9169 18.368C41.7489 18.56 41.6129 18.788 41.5089 19.052C41.4129 19.308 41.3649 19.584 41.3649 19.88Z" fill="white"/>
<path d="M50.4556 23.12C49.9596 23.12 49.5116 23.032 49.1116 22.856C48.7196 22.68 48.3836 22.444 48.1036 22.148C47.8236 21.852 47.6076 21.508 47.4556 21.116C47.3036 20.716 47.2276 20.3 47.2276 19.868C47.2276 19.436 47.3036 19.024 47.4556 18.632C47.6076 18.232 47.8236 17.884 48.1036 17.588C48.3916 17.292 48.7316 17.056 49.1236 16.88C49.5236 16.704 49.9676 16.616 50.4556 16.616C50.9436 16.616 51.3836 16.704 51.7756 16.88C52.1756 17.056 52.5156 17.292 52.7956 17.588C53.0836 17.884 53.3036 18.232 53.4556 18.632C53.6076 19.024 53.6836 19.436 53.6836 19.868C53.6836 20.3 53.6076 20.716 53.4556 21.116C53.3036 21.508 53.0836 21.852 52.7956 22.148C52.5156 22.444 52.1756 22.68 51.7756 22.856C51.3836 23.032 50.9436 23.12 50.4556 23.12ZM48.5836 19.88C48.5836 20.184 48.6316 20.464 48.7276 20.72C48.8236 20.976 48.9556 21.2 49.1236 21.392C49.2916 21.576 49.4876 21.724 49.7116 21.836C49.9436 21.94 50.1916 21.992 50.4556 21.992C50.7196 21.992 50.9636 21.94 51.1876 21.836C51.4196 21.724 51.6196 21.572 51.7876 21.38C51.9556 21.188 52.0876 20.964 52.1836 20.708C52.2796 20.452 52.3276 20.172 52.3276 19.868C52.3276 19.572 52.2796 19.296 52.1836 19.04C52.0876 18.776 51.9556 18.548 51.7876 18.356C51.6196 18.164 51.4196 18.016 51.1876 17.912C50.9636 17.8 50.7196 17.744 50.4556 17.744C50.1996 17.744 49.9556 17.8 49.7236 17.912C49.4996 18.024 49.3036 18.176 49.1356 18.368C48.9676 18.56 48.8316 18.788 48.7276 19.052C48.6316 19.308 48.5836 19.584 48.5836 19.88Z" fill="white"/>
<path d="M57.3384 23.06C56.9144 23.06 56.5264 22.976 56.1744 22.808C55.8224 22.632 55.5184 22.396 55.2624 22.1C55.0144 21.804 54.8184 21.464 54.6744 21.08C54.5384 20.696 54.4704 20.292 54.4704 19.868C54.4704 19.42 54.5424 19 54.6864 18.608C54.8304 18.208 55.0304 17.864 55.2864 17.576C55.5424 17.28 55.8464 17.048 56.1984 16.88C56.5584 16.704 56.9544 16.616 57.3864 16.616C57.8904 16.616 58.3304 16.736 58.7064 16.976C59.0904 17.216 59.4064 17.528 59.6544 17.912V16.724H60.8184V22.82C60.8184 23.276 60.7344 23.68 60.5664 24.032C60.3984 24.384 60.1624 24.68 59.8584 24.92C59.5624 25.168 59.2104 25.356 58.8024 25.484C58.3944 25.612 57.9544 25.676 57.4824 25.676C56.7864 25.676 56.2064 25.556 55.7424 25.316C55.2864 25.084 54.9024 24.756 54.5904 24.332L55.3344 23.636C55.5744 23.972 55.8824 24.228 56.2584 24.404C56.6424 24.58 57.0504 24.668 57.4824 24.668C57.7544 24.668 58.0104 24.632 58.2504 24.56C58.4984 24.488 58.7144 24.376 58.8984 24.224C59.0824 24.072 59.2264 23.88 59.3304 23.648C59.4424 23.416 59.4984 23.14 59.4984 22.82V21.86C59.2744 22.244 58.9664 22.54 58.5744 22.748C58.1824 22.956 57.7704 23.06 57.3384 23.06ZM57.7704 21.992C57.9704 21.992 58.1624 21.96 58.3464 21.896C58.5304 21.824 58.6984 21.732 58.8504 21.62C59.0104 21.5 59.1464 21.368 59.2584 21.224C59.3704 21.072 59.4504 20.912 59.4984 20.744V19.1C59.4184 18.9 59.3144 18.72 59.1864 18.56C59.0584 18.392 58.9104 18.248 58.7424 18.128C58.5824 18.008 58.4104 17.916 58.2264 17.852C58.0424 17.78 57.8584 17.744 57.6744 17.744C57.3864 17.744 57.1264 17.808 56.8944 17.936C56.6704 18.056 56.4784 18.22 56.3184 18.428C56.1584 18.628 56.0344 18.856 55.9464 19.112C55.8584 19.368 55.8144 19.632 55.8144 19.904C55.8144 20.192 55.8624 20.464 55.9584 20.72C56.0624 20.968 56.2024 21.188 56.3784 21.38C56.5544 21.564 56.7584 21.712 56.9904 21.824C57.2304 21.936 57.4904 21.992 57.7704 21.992Z" fill="white"/>
<path d="M62.4133 14.24H63.7333V21.188C63.7333 21.42 63.7933 21.604 63.9133 21.74C64.0333 21.868 64.2013 21.932 64.4173 21.932C64.5053 21.932 64.6053 21.916 64.7173 21.884C64.8373 21.852 64.9493 21.816 65.0533 21.776L65.2453 22.808C65.0533 22.896 64.8253 22.964 64.5613 23.012C64.2973 23.068 64.0613 23.096 63.8533 23.096C63.3973 23.096 63.0413 22.972 62.7853 22.724C62.5373 22.476 62.4133 22.124 62.4133 21.668V14.24Z" fill="white"/>
<path d="M68.8546 23.12C68.3666 23.12 67.9226 23.036 67.5226 22.868C67.1226 22.692 66.7786 22.456 66.4906 22.16C66.2106 21.864 65.9906 21.52 65.8306 21.128C65.6786 20.736 65.6026 20.32 65.6026 19.88C65.6026 19.44 65.6786 19.024 65.8306 18.632C65.9906 18.232 66.2106 17.884 66.4906 17.588C66.7786 17.284 67.1226 17.048 67.5226 16.88C67.9226 16.704 68.3706 16.616 68.8666 16.616C69.3546 16.616 69.7946 16.704 70.1866 16.88C70.5866 17.056 70.9266 17.292 71.2066 17.588C71.4866 17.876 71.6986 18.216 71.8426 18.608C71.9946 18.992 72.0706 19.396 72.0706 19.82C72.0706 19.916 72.0666 20.008 72.0586 20.096C72.0506 20.176 72.0426 20.244 72.0346 20.3H67.0066C67.0306 20.58 67.0946 20.832 67.1986 21.056C67.3106 21.28 67.4506 21.476 67.6186 21.644C67.7946 21.804 67.9906 21.928 68.2066 22.016C68.4306 22.104 68.6626 22.148 68.9026 22.148C69.0786 22.148 69.2506 22.128 69.4186 22.088C69.5946 22.04 69.7546 21.976 69.8986 21.896C70.0426 21.808 70.1706 21.704 70.2826 21.584C70.3946 21.464 70.4826 21.332 70.5466 21.188L71.6746 21.512C71.4586 21.984 71.0986 22.372 70.5946 22.676C70.0986 22.972 69.5186 23.12 68.8546 23.12ZM70.7626 19.388C70.7386 19.124 70.6706 18.88 70.5586 18.656C70.4546 18.432 70.3186 18.244 70.1506 18.092C69.9826 17.932 69.7866 17.808 69.5626 17.72C69.3386 17.632 69.1026 17.588 68.8546 17.588C68.6066 17.588 68.3706 17.632 68.1466 17.72C67.9306 17.808 67.7386 17.932 67.5706 18.092C67.4026 18.244 67.2666 18.432 67.1626 18.656C67.0586 18.88 66.9946 19.124 66.9706 19.388H70.7626Z" fill="white"/>
<path d="M76.2802 23V14.48H79.8562C80.2402 14.48 80.5922 14.56 80.9122 14.72C81.2402 14.88 81.5202 15.092 81.7522 15.356C81.9842 15.612 82.1642 15.908 82.2922 16.244C82.4282 16.572 82.4962 16.908 82.4962 17.252C82.4962 17.612 82.4322 17.96 82.3042 18.296C82.1842 18.624 82.0122 18.92 81.7882 19.184C81.5642 19.44 81.2922 19.648 80.9722 19.808C80.6602 19.96 80.3122 20.036 79.9282 20.036H77.6242V23H76.2802ZM77.6242 18.848H79.8442C80.0362 18.848 80.2082 18.808 80.3602 18.728C80.5202 18.648 80.6562 18.536 80.7682 18.392C80.8802 18.248 80.9682 18.08 81.0322 17.888C81.0962 17.696 81.1282 17.484 81.1282 17.252C81.1282 17.012 81.0922 16.796 81.0202 16.604C80.9482 16.412 80.8482 16.248 80.7202 16.112C80.5922 15.968 80.4442 15.86 80.2762 15.788C80.1162 15.708 79.9482 15.668 79.7722 15.668H77.6242V18.848Z" fill="white"/>
<path d="M83.6008 14.24H84.9208V21.188C84.9208 21.42 84.9808 21.604 85.1008 21.74C85.2208 21.868 85.3888 21.932 85.6048 21.932C85.6928 21.932 85.7928 21.916 85.9048 21.884C86.0248 21.852 86.1368 21.816 86.2408 21.776L86.4328 22.808C86.2408 22.896 86.0128 22.964 85.7488 23.012C85.4848 23.068 85.2488 23.096 85.0408 23.096C84.5848 23.096 84.2288 22.972 83.9728 22.724C83.7248 22.476 83.6008 22.124 83.6008 21.668V14.24Z" fill="white"/>
<path d="M88.8661 23.12C88.5621 23.12 88.2781 23.072 88.0141 22.976C87.7581 22.872 87.5341 22.732 87.3421 22.556C87.1581 22.38 87.0101 22.172 86.8981 21.932C86.7941 21.692 86.7421 21.432 86.7421 21.152C86.7421 20.856 86.8061 20.588 86.9341 20.348C87.0621 20.108 87.2421 19.9 87.4741 19.724C87.7141 19.548 87.9941 19.412 88.3141 19.316C88.6421 19.22 89.0021 19.172 89.3941 19.172C89.6901 19.172 89.9821 19.2 90.2701 19.256C90.5581 19.304 90.8181 19.372 91.0501 19.46V19.028C91.0501 18.564 90.9181 18.204 90.6541 17.948C90.3901 17.684 90.0101 17.552 89.5141 17.552C89.1781 17.552 88.8461 17.616 88.5181 17.744C88.1981 17.864 87.8661 18.04 87.5221 18.272L87.1141 17.432C87.9221 16.888 88.7621 16.616 89.6341 16.616C90.4981 16.616 91.1701 16.836 91.6501 17.276C92.1301 17.716 92.3701 18.348 92.3701 19.172V21.44C92.3701 21.72 92.4861 21.864 92.7181 21.872V23C92.5901 23.024 92.4781 23.04 92.3821 23.048C92.2941 23.056 92.2061 23.06 92.1181 23.06C91.8621 23.06 91.6621 22.996 91.5181 22.868C91.3821 22.74 91.2981 22.576 91.2661 22.376L91.2301 21.98C90.9501 22.348 90.6021 22.632 90.1861 22.832C89.7781 23.024 89.3381 23.12 88.8661 23.12ZM89.2261 22.148C89.5461 22.148 89.8461 22.092 90.1261 21.98C90.4141 21.86 90.6381 21.696 90.7981 21.488C90.9661 21.344 91.0501 21.192 91.0501 21.032V20.204C90.8261 20.116 90.5861 20.048 90.3301 20C90.0821 19.952 89.8381 19.928 89.5981 19.928C89.1261 19.928 88.7381 20.032 88.4341 20.24C88.1381 20.44 87.9901 20.708 87.9901 21.044C87.9901 21.356 88.1061 21.62 88.3381 21.836C88.5701 22.044 88.8661 22.148 89.2261 22.148Z" fill="white"/>
<path d="M94.0352 24.476C94.1552 24.5 94.2712 24.52 94.3832 24.536C94.5032 24.552 94.5992 24.56 94.6712 24.56C94.7752 24.56 94.8632 24.536 94.9352 24.488C95.0152 24.448 95.0952 24.372 95.1752 24.26C95.2552 24.148 95.3352 23.988 95.4152 23.78C95.5032 23.58 95.6032 23.32 95.7152 23L93.1352 16.724H94.4912L96.4352 21.836L98.1632 16.724H99.4112L96.5672 24.452C96.4392 24.812 96.2152 25.112 95.8952 25.352C95.5832 25.6 95.1792 25.724 94.6832 25.724C94.5872 25.724 94.4872 25.716 94.3832 25.7C94.2792 25.692 94.1632 25.668 94.0352 25.628V24.476Z" fill="white"/>
<path d="M7 24.632V7.37C7 6.768 7.35 6.247 7.856 6L17.841 15.998L7.852 26C7.59625 25.8745 7.38084 25.6798 7.23023 25.4379C7.07962 25.1961 6.99985 24.9169 7 24.632ZM21.009 19.17L10.09 25.482L18.7 16.86L21.008 19.17H21.009ZM24.403 14.79C24.588 14.9309 24.7383 15.1123 24.8423 15.3204C24.9462 15.5284 25.0011 15.7575 25.0026 15.9901C25.0041 16.2226 24.9523 16.4524 24.8512 16.6619C24.75 16.8713 24.6022 17.0547 24.419 17.198L22.099 18.539L19.563 16L22.099 13.46L24.404 14.792L24.403 14.79ZM10.097 6.52L21.007 12.828L18.702 15.136L10.097 6.521V6.52Z" fill="white"/>
<path d="M32.1079 10.406H32.2039C32.3239 10.398 32.4319 10.362 32.5279 10.298C32.6279 10.234 32.7159 10.114 32.7919 9.93801C32.8719 9.75801 32.9399 9.50801 32.9959 9.18801C33.0559 8.86801 33.1079 8.44601 33.1519 7.92201L33.2479 6.74001H35.6599V10.406H36.3079V12.092H35.6839V11H32.7259V12.092H32.1079V10.406ZM34.9879 10.406V7.33401H33.8719L33.8119 8.01801C33.7839 8.33801 33.7519 8.62601 33.7159 8.88201C33.6799 9.13401 33.6359 9.35801 33.5839 9.55401C33.5319 9.74601 33.4739 9.91201 33.4099 10.052C33.3459 10.192 33.2739 10.31 33.1939 10.406H34.9879Z" fill="white"/>
<path d="M38.7046 11.03C38.4006 11.03 38.1226 10.97 37.8706 10.85C37.6226 10.726 37.4086 10.564 37.2286 10.364C37.0486 10.16 36.9086 9.92801 36.8086 9.66801C36.7126 9.40801 36.6646 9.14201 36.6646 8.87001C36.6646 8.58601 36.7166 8.31401 36.8206 8.05401C36.9246 7.79401 37.0666 7.56401 37.2466 7.36401C37.4306 7.16401 37.6466 7.00601 37.8946 6.89001C38.1466 6.77001 38.4206 6.71001 38.7166 6.71001C39.0206 6.71001 39.2966 6.77401 39.5446 6.90201C39.7966 7.02601 40.0106 7.19001 40.1866 7.39401C40.3666 7.59801 40.5046 7.83001 40.6006 8.09001C40.7006 8.34601 40.7506 8.60801 40.7506 8.87601C40.7506 9.16001 40.6986 9.43201 40.5946 9.69201C40.4946 9.95201 40.3526 10.182 40.1686 10.382C39.9846 10.578 39.7666 10.736 39.5146 10.856C39.2666 10.972 38.9966 11.03 38.7046 11.03ZM37.3486 8.87001C37.3486 9.07001 37.3806 9.26401 37.4446 9.45201C37.5086 9.64001 37.5986 9.80601 37.7146 9.95001C37.8346 10.094 37.9786 10.21 38.1466 10.298C38.3146 10.382 38.5026 10.424 38.7106 10.424C38.9266 10.424 39.1166 10.38 39.2806 10.292C39.4486 10.2 39.5906 10.08 39.7066 9.93201C39.8226 9.78401 39.9106 9.61801 39.9706 9.43401C40.0306 9.25001 40.0606 9.06201 40.0606 8.87001C40.0606 8.66601 40.0286 8.47201 39.9646 8.28801C39.9006 8.10001 39.8086 7.93601 39.6886 7.79601C39.5726 7.65201 39.4306 7.53801 39.2626 7.45401C39.0986 7.36601 38.9146 7.32201 38.7106 7.32201C38.4946 7.32201 38.3026 7.36801 38.1346 7.46001C37.9666 7.54801 37.8246 7.66401 37.7086 7.80801C37.5926 7.95201 37.5026 8.11801 37.4386 8.30601C37.3786 8.49001 37.3486 8.67801 37.3486 8.87001Z" fill="white"/>
<path d="M41.2303 8.84001C41.2303 8.58401 41.2763 8.33001 41.3683 8.07801C41.4603 7.82201 41.5943 7.59401 41.7703 7.39401C41.9503 7.19001 42.1683 7.02601 42.4243 6.90201C42.6803 6.77801 42.9703 6.71601 43.2943 6.71601C43.6823 6.71601 44.0143 6.80201 44.2903 6.97401C44.5663 7.14601 44.7743 7.37001 44.9143 7.64601L44.3863 8.00001C44.3263 7.87201 44.2543 7.76401 44.1703 7.67601C44.0863 7.58801 43.9943 7.51801 43.8943 7.46601C43.7943 7.41401 43.6903 7.37801 43.5823 7.35801C43.4743 7.33401 43.3703 7.32201 43.2703 7.32201C43.0463 7.32201 42.8503 7.36801 42.6823 7.46001C42.5143 7.54801 42.3723 7.66601 42.2563 7.81401C42.1443 7.96201 42.0583 8.12801 41.9983 8.31201C41.9423 8.49601 41.9143 8.68001 41.9143 8.86401C41.9143 9.07201 41.9483 9.27001 42.0163 9.45801C42.0843 9.64601 42.1783 9.81201 42.2983 9.95601C42.4223 10.1 42.5683 10.216 42.7363 10.304C42.9043 10.388 43.0883 10.43 43.2883 10.43C43.3923 10.43 43.4983 10.418 43.6063 10.394C43.7183 10.366 43.8243 10.324 43.9243 10.268C44.0283 10.208 44.1223 10.134 44.2063 10.046C44.2943 9.95801 44.3663 9.85201 44.4223 9.72801L44.9803 10.046C44.9123 10.206 44.8163 10.348 44.6923 10.472C44.5683 10.592 44.4283 10.694 44.2723 10.778C44.1163 10.862 43.9503 10.926 43.7743 10.97C43.6023 11.014 43.4323 11.036 43.2643 11.036C42.9643 11.036 42.6903 10.972 42.4423 10.844C42.1943 10.716 41.9803 10.55 41.8003 10.346C41.6203 10.138 41.4803 9.90401 41.3803 9.64401C41.2803 9.38001 41.2303 9.11201 41.2303 8.84001Z" fill="white"/>
<path d="M48.741 7.33401H47.325V11H46.647V7.33401H45.225V6.74001H48.741V7.33401Z" fill="white"/>
<path d="M49.9723 11.042C49.8923 11.042 49.7983 11.032 49.6903 11.012C49.5863 10.996 49.4983 10.966 49.4263 10.922L49.4803 10.358C49.5363 10.382 49.6043 10.404 49.6843 10.424C49.7643 10.444 49.8423 10.454 49.9183 10.454C50.0463 10.454 50.1583 10.418 50.2543 10.346C50.3503 10.27 50.4403 10.126 50.5243 9.91401L48.9703 6.74001H49.6963L50.8363 9.20601L51.9103 6.74001H52.6183L51.1183 9.98001C51.0303 10.172 50.9443 10.336 50.8603 10.472C50.7803 10.604 50.6943 10.714 50.6023 10.802C50.5143 10.886 50.4183 10.948 50.3143 10.988C50.2143 11.024 50.1003 11.042 49.9723 11.042Z" fill="white"/>
<path d="M53.2177 6.74001H56.6737V11H55.9957V7.33401H53.8957V11H53.2177V6.74001Z" fill="white"/>
<path d="M61.2171 6.74001V11H60.5391V9.12201H58.3911V11H57.7191V6.74001H58.3911V8.52201H60.5391V6.74001H61.2171Z" fill="white"/>
<path d="M64.0314 11.03C63.7274 11.03 63.4494 10.97 63.1974 10.85C62.9494 10.726 62.7354 10.564 62.5554 10.364C62.3754 10.16 62.2354 9.92801 62.1354 9.66801C62.0394 9.40801 61.9914 9.14201 61.9914 8.87001C61.9914 8.58601 62.0434 8.31401 62.1474 8.05401C62.2514 7.79401 62.3934 7.56401 62.5734 7.36401C62.7574 7.16401 62.9734 7.00601 63.2214 6.89001C63.4734 6.77001 63.7474 6.71001 64.0434 6.71001C64.3474 6.71001 64.6234 6.77401 64.8714 6.90201C65.1234 7.02601 65.3374 7.19001 65.5134 7.39401C65.6934 7.59801 65.8314 7.83001 65.9274 8.09001C66.0274 8.34601 66.0774 8.60801 66.0774 8.87601C66.0774 9.16001 66.0254 9.43201 65.9214 9.69201C65.8214 9.95201 65.6794 10.182 65.4954 10.382C65.3114 10.578 65.0934 10.736 64.8414 10.856C64.5934 10.972 64.3234 11.03 64.0314 11.03ZM62.6754 8.87001C62.6754 9.07001 62.7074 9.26401 62.7714 9.45201C62.8354 9.64001 62.9254 9.80601 63.0414 9.95001C63.1614 10.094 63.3054 10.21 63.4734 10.298C63.6414 10.382 63.8294 10.424 64.0374 10.424C64.2534 10.424 64.4434 10.38 64.6074 10.292C64.7754 10.2 64.9174 10.08 65.0334 9.93201C65.1494 9.78401 65.2374 9.61801 65.2974 9.43401C65.3574 9.25001 65.3874 9.06201 65.3874 8.87001C65.3874 8.66601 65.3554 8.47201 65.2914 8.28801C65.2274 8.10001 65.1354 7.93601 65.0154 7.79601C64.8994 7.65201 64.7574 7.53801 64.5894 7.45401C64.4254 7.36601 64.2414 7.32201 64.0374 7.32201C63.8214 7.32201 63.6294 7.36801 63.4614 7.46001C63.2934 7.54801 63.1514 7.66401 63.0354 7.80801C62.9194 7.95201 62.8294 8.11801 62.7654 8.30601C62.7054 8.49001 62.6754 8.67801 62.6754 8.87001Z" fill="white"/>
<path d="M71.6395 9.90201C71.6395 10.074 71.6035 10.228 71.5315 10.364C71.4635 10.5 71.3695 10.616 71.2495 10.712C71.1335 10.804 70.9955 10.876 70.8355 10.928C70.6755 10.976 70.5055 11 70.3255 11H68.2915V6.74001H70.4875C70.6355 6.74001 70.7695 6.77201 70.8895 6.83601C71.0095 6.90001 71.1115 6.98401 71.1955 7.08801C71.2795 7.18801 71.3435 7.30401 71.3875 7.43601C71.4355 7.56401 71.4595 7.69401 71.4595 7.82601C71.4595 8.03401 71.4055 8.23001 71.2975 8.41401C71.1935 8.59401 71.0435 8.72801 70.8475 8.81601C71.0915 8.88801 71.2835 9.02001 71.4235 9.21201C71.5675 9.40001 71.6395 9.63001 71.6395 9.90201ZM70.9495 9.77601C70.9495 9.68801 70.9335 9.60401 70.9015 9.52401C70.8735 9.44401 70.8335 9.37401 70.7815 9.31401C70.7335 9.25401 70.6735 9.20601 70.6015 9.17001C70.5295 9.13401 70.4515 9.11601 70.3675 9.11601H68.9635V10.418H70.3255C70.4135 10.418 70.4955 10.402 70.5715 10.37C70.6475 10.334 70.7135 10.288 70.7695 10.232C70.8255 10.172 70.8695 10.104 70.9015 10.028C70.9335 9.94801 70.9495 9.86401 70.9495 9.77601ZM68.9635 7.32201V8.57601H70.1995C70.2835 8.57601 70.3595 8.56001 70.4275 8.52801C70.4995 8.49601 70.5615 8.45401 70.6135 8.40201C70.6695 8.34601 70.7115 8.28001 70.7395 8.20401C70.7715 8.12801 70.7875 8.04401 70.7875 7.95201C70.7875 7.76801 70.7355 7.61801 70.6315 7.50201C70.5275 7.38201 70.3955 7.32201 70.2355 7.32201H68.9635Z" fill="white"/>
<rect x="124" width="104" height="32" rx="3" fill="#2D2D2F"/>
<path d="M147.21 15.8336C147.187 13.3507 149.243 12.1428 149.337 12.0865C148.173 10.3894 146.368 10.1575 145.734 10.139C144.219 9.97956 142.749 11.0458 141.977 11.0458C141.19 11.0458 140.001 10.1544 138.72 10.1806C137.072 10.2061 135.529 11.1605 134.683 12.6427C132.938 15.6649 134.24 20.1061 135.912 22.5489C136.749 23.7453 137.726 25.0811 139.006 25.0341C140.258 24.9825 140.725 24.236 142.236 24.236C143.733 24.236 144.172 25.0341 145.477 25.0041C146.821 24.9825 147.667 23.8023 148.474 22.5951C149.441 21.2239 149.829 19.8734 149.844 19.8041C149.813 19.7933 147.235 18.8095 147.21 15.8336Z" fill="white"/>
<path d="M144.745 8.53211C145.418 7.69009 145.879 6.54455 145.751 5.38206C144.776 5.42521 143.557 6.05614 142.856 6.87967C142.235 7.60535 141.68 8.79481 141.823 9.91338C142.918 9.99504 144.042 9.36103 144.745 8.53211Z" fill="white"/>
<path d="M165.326 24.8623H163.577L162.619 21.8509H159.288L158.375 24.8623H156.671L159.972 14.6102H162.01L165.326 24.8623ZM162.33 20.5875L161.463 17.9105C161.371 17.637 161.2 16.993 160.946 15.9791H160.915C160.814 16.4152 160.652 17.0592 160.428 17.9105L159.577 20.5875H162.33Z" fill="white"/>
<path d="M173.814 21.0751C173.814 22.3323 173.474 23.3261 172.794 24.0556C172.186 24.705 171.43 25.0294 170.528 25.0294C169.554 25.0294 168.855 24.6796 168.429 23.9801H168.398V27.8743H166.755V19.9033C166.755 19.1129 166.735 18.3017 166.695 17.4697H168.139L168.231 18.6415H168.262C168.809 17.7586 169.64 17.318 170.756 17.318C171.628 17.318 172.356 17.6623 172.938 18.3518C173.522 19.0421 173.814 19.9495 173.814 21.0751ZM172.14 21.1351C172.14 20.4156 171.979 19.8224 171.653 19.3556C171.298 18.8687 170.821 18.6253 170.224 18.6253C169.818 18.6253 169.45 18.7609 169.121 19.0282C168.792 19.2978 168.576 19.6499 168.475 20.0859C168.424 20.2893 168.399 20.4557 168.399 20.5866V21.8192C168.399 22.357 168.563 22.8107 168.893 23.1813C169.223 23.5518 169.651 23.7367 170.178 23.7367C170.797 23.7367 171.278 23.4979 171.623 23.0218C171.968 22.5449 172.14 21.9163 172.14 21.1351Z" fill="white"/>
<path d="M182.316 21.0751C182.316 22.3323 181.976 23.3261 181.296 24.0556C180.688 24.705 179.933 25.0294 179.031 25.0294C178.057 25.0294 177.357 24.6796 176.932 23.9801H176.901V27.8743H175.259V19.9033C175.259 19.1129 175.238 18.3017 175.198 17.4697H176.642L176.734 18.6415H176.765C177.312 17.7586 178.143 17.318 179.259 17.318C180.131 17.318 180.859 17.6623 181.443 18.3518C182.024 19.0421 182.316 19.9495 182.316 21.0751ZM180.643 21.1351C180.643 20.4156 180.48 19.8224 180.155 19.3556C179.8 18.8687 179.325 18.6253 178.726 18.6253C178.32 18.6253 177.953 18.7609 177.623 19.0282C177.293 19.2978 177.078 19.6499 176.978 20.0859C176.927 20.2893 176.901 20.4557 176.901 20.5866V21.8192C176.901 22.357 177.066 22.8107 177.394 23.1813C177.724 23.551 178.152 23.7367 178.681 23.7367C179.299 23.7367 179.781 23.4979 180.125 23.0218C180.47 22.5449 180.643 21.9163 180.643 21.1351Z" fill="white"/>
<path d="M191.823 21.9872C191.823 22.8593 191.52 23.5688 190.912 24.1165C190.244 24.7151 189.314 25.014 188.119 25.014C187.016 25.014 186.132 24.8014 185.462 24.3754L185.843 23.0064C186.564 23.4424 187.355 23.6612 188.217 23.6612C188.836 23.6612 189.317 23.521 189.663 23.2422C190.008 22.9633 190.179 22.5889 190.179 22.122C190.179 21.706 190.038 21.3555 189.753 21.0712C189.471 20.787 188.998 20.5227 188.339 20.2785C186.544 19.6091 185.647 18.6284 185.647 17.3388C185.647 16.496 185.962 15.805 186.591 15.2673C187.218 14.7288 188.055 14.4599 189.101 14.4599C190.034 14.4599 190.809 14.6225 191.427 14.9468L191.017 16.2857C190.439 15.9714 189.786 15.8142 189.055 15.8142C188.477 15.8142 188.025 15.9568 187.702 16.2403C187.428 16.4937 187.291 16.8026 187.291 17.1686C187.291 17.5738 187.448 17.9089 187.762 18.1723C188.035 18.4158 188.532 18.6792 189.253 18.9635C190.135 19.3187 190.783 19.7339 191.2 20.21C191.615 20.6845 191.823 21.2785 191.823 21.9872Z" fill="white"/>
<path d="M197.253 18.7024H195.443V22.2916C195.443 23.2045 195.762 23.6606 196.401 23.6606C196.695 23.6606 196.938 23.6351 197.131 23.5843L197.176 24.8315C196.852 24.9525 196.426 25.0133 195.899 25.0133C195.25 25.0133 194.743 24.8153 194.377 24.4201C194.013 24.0242 193.829 23.3601 193.829 22.4272V18.7009H192.751V17.4683H193.829V16.1148L195.443 15.6279V17.4683H197.253V18.7024Z" fill="white"/>
<path d="M205.421 21.1051C205.421 22.2414 205.096 23.1743 204.447 23.9039C203.767 24.655 202.864 25.0294 201.739 25.0294C200.654 25.0294 199.79 24.6696 199.146 23.9501C198.502 23.2305 198.18 22.3223 198.18 21.2276C198.18 20.082 198.512 19.1437 199.177 18.4142C199.84 17.6839 200.735 17.3187 201.86 17.3187C202.945 17.3187 203.818 17.6785 204.477 18.3988C205.107 19.0975 205.421 19.9996 205.421 21.1051ZM203.717 21.1583C203.717 20.4765 203.571 19.8918 203.276 19.4041C202.932 18.814 202.44 18.5197 201.802 18.5197C201.142 18.5197 200.64 18.8148 200.296 19.4041C200.001 19.8925 199.855 20.4865 199.855 21.1891C199.855 21.8708 200.001 22.4556 200.296 22.9424C200.651 23.5325 201.147 23.8268 201.787 23.8268C202.414 23.8268 202.907 23.5264 203.262 22.927C203.565 22.4301 203.717 21.8393 203.717 21.1583Z" fill="white"/>
<path d="M210.76 18.9142C210.597 18.8841 210.424 18.8687 210.242 18.8687C209.664 18.8687 209.217 19.0867 208.903 19.5235C208.63 19.9087 208.493 20.3956 208.493 20.9834V24.8622H206.851L206.866 19.7978C206.866 18.9458 206.846 18.17 206.805 17.4705H208.235L208.295 18.8849H208.341C208.514 18.3988 208.788 18.0074 209.162 17.7139C209.528 17.4497 209.923 17.318 210.349 17.318C210.501 17.318 210.638 17.3287 210.76 17.348V18.9142Z" fill="white"/>
<path d="M218.105 20.8162C218.105 21.1104 218.086 21.3585 218.045 21.5611H213.118C213.137 22.2914 213.375 22.8499 213.833 23.2351C214.248 23.5795 214.785 23.752 215.445 23.752C216.174 23.752 216.84 23.6357 217.438 23.4023L217.696 24.5424C216.996 24.8475 216.17 24.9993 215.217 24.9993C214.071 24.9993 213.171 24.6619 212.516 23.9878C211.863 23.3137 211.536 22.4085 211.536 21.273C211.536 20.1583 211.84 19.23 212.449 18.4896C213.087 17.6992 213.949 17.304 215.034 17.304C216.099 17.304 216.906 17.6992 217.454 18.4896C217.887 19.1175 218.105 19.894 218.105 20.8162ZM216.539 20.3901C216.55 19.9033 216.443 19.4827 216.22 19.1275C215.936 18.6707 215.499 18.4427 214.911 18.4427C214.374 18.4427 213.938 18.6653 213.604 19.1121C213.331 19.4672 213.168 19.8933 213.118 20.3894H216.539V20.3901Z" fill="white"/>
<path d="M157.419 5.87451C157.614 5.63827 157.842 5.46108 158.104 5.34296C158.366 5.22483 158.685 5.16577 159.06 5.16577C159.578 5.16577 159.981 5.27876 160.269 5.50473C160.562 5.72557 160.708 6.05427 160.708 6.49081C160.708 6.78355 160.636 7.04291 160.492 7.26888C160.349 7.48972 160.133 7.64123 159.845 7.7234C160.184 7.7799 160.451 7.9237 160.647 8.15481C160.847 8.38592 160.947 8.67866 160.947 9.03303C160.947 9.28469 160.898 9.51323 160.801 9.71866C160.703 9.92409 160.567 10.1013 160.392 10.2502C160.223 10.394 160.02 10.507 159.784 10.5892C159.547 10.6714 159.291 10.7124 159.013 10.7124C158.633 10.7124 158.297 10.6431 158.004 10.5044C157.711 10.3606 157.47 10.1578 157.28 9.89585L157.866 9.32577C157.999 9.51066 158.158 9.65703 158.343 9.76488C158.528 9.87274 158.751 9.92666 159.013 9.92666C159.167 9.92666 159.309 9.90612 159.437 9.86503C159.565 9.81881 159.676 9.75718 159.768 9.68014C159.861 9.59797 159.933 9.50039 159.984 9.3874C160.041 9.27441 160.069 9.14859 160.069 9.00992C160.069 8.72745 159.956 8.50148 159.73 8.33199C159.509 8.15738 159.191 8.07007 158.775 8.07007H158.282V7.36903H158.744C159.103 7.36903 159.381 7.2997 159.576 7.16103C159.776 7.02236 159.876 6.82977 159.876 6.58325C159.876 6.35728 159.799 6.1878 159.645 6.07481C159.491 5.96182 159.291 5.90533 159.044 5.90533C158.808 5.90533 158.595 5.94898 158.405 6.03629C158.22 6.1236 158.066 6.24943 157.943 6.41377L157.419 5.87451Z" fill="white"/>
<path d="M162.967 10.751C162.772 10.751 162.589 10.7201 162.42 10.6585C162.256 10.5917 162.112 10.5019 161.989 10.3889C161.87 10.2759 161.775 10.1424 161.704 9.98829C161.637 9.83422 161.603 9.6673 161.603 9.48755C161.603 9.29752 161.644 9.12548 161.727 8.9714C161.809 8.81733 161.924 8.6838 162.073 8.57081C162.227 8.45782 162.407 8.37051 162.613 8.30888C162.823 8.24725 163.054 8.21644 163.306 8.21644C163.496 8.21644 163.683 8.23441 163.868 8.27036C164.053 8.30118 164.22 8.34483 164.369 8.40133V8.12399C164.369 7.82612 164.284 7.59501 164.115 7.43066C163.945 7.26118 163.701 7.17644 163.383 7.17644C163.167 7.17644 162.954 7.21752 162.744 7.2997C162.538 7.37673 162.325 7.48972 162.104 7.63866L161.842 7.0994C162.361 6.75017 162.9 6.57555 163.46 6.57555C164.015 6.57555 164.446 6.71678 164.754 6.99925C165.062 7.28172 165.216 7.68745 165.216 8.21644V9.67244C165.216 9.85219 165.291 9.94464 165.44 9.94977V10.6739C165.358 10.6893 165.286 10.6996 165.224 10.7047C165.168 10.7099 165.111 10.7124 165.055 10.7124C164.89 10.7124 164.762 10.6714 164.669 10.5892C164.582 10.507 164.528 10.4017 164.508 10.2733L164.485 10.0191C164.305 10.2554 164.081 10.4377 163.814 10.5661C163.552 10.6893 163.27 10.751 162.967 10.751ZM163.198 10.127C163.403 10.127 163.596 10.091 163.776 10.0191C163.961 9.94207 164.105 9.83678 164.207 9.70325C164.315 9.61081 164.369 9.51323 164.369 9.41051V8.87896C164.225 8.82246 164.071 8.77881 163.907 8.74799C163.748 8.71718 163.591 8.70177 163.437 8.70177C163.134 8.70177 162.885 8.76854 162.69 8.90207C162.5 9.03046 162.405 9.20251 162.405 9.41822C162.405 9.61851 162.479 9.78799 162.628 9.92666C162.777 10.0602 162.967 10.127 163.198 10.127Z" fill="white"/>
<path d="M169.056 7.3151H167.253V10.6739H166.421V6.64488H169.056V7.3151Z" fill="white"/>
<path d="M172.151 10.751C171.828 10.751 171.543 10.6739 171.296 10.5198C171.05 10.3658 170.854 10.1655 170.711 9.91896V12.3148H169.863V6.64488H170.61V7.36903C170.765 7.12765 170.962 6.93506 171.204 6.79125C171.45 6.64745 171.727 6.57555 172.036 6.57555C172.313 6.57555 172.567 6.63204 172.798 6.74503C173.029 6.85802 173.23 7.00952 173.399 7.19955C173.569 7.38957 173.7 7.61041 173.792 7.86207C173.89 8.11372 173.938 8.37822 173.938 8.65555C173.938 8.94829 173.895 9.22306 173.807 9.47985C173.72 9.7315 173.597 9.95234 173.438 10.1424C173.278 10.3273 173.088 10.4762 172.868 10.5892C172.652 10.697 172.413 10.751 172.151 10.751ZM171.874 10.0268C172.054 10.0268 172.215 9.98829 172.359 9.91125C172.508 9.83422 172.634 9.7315 172.737 9.60311C172.845 9.47471 172.927 9.32834 172.983 9.16399C173.04 8.99965 173.068 8.83017 173.068 8.65555C173.068 8.47066 173.035 8.29604 172.968 8.1317C172.906 7.96735 172.819 7.82355 172.706 7.70029C172.598 7.57703 172.467 7.47945 172.313 7.40755C172.159 7.33565 171.992 7.2997 171.812 7.2997C171.704 7.2997 171.591 7.32024 171.473 7.36133C171.355 7.40241 171.245 7.45891 171.142 7.53081C171.039 7.60271 170.949 7.68745 170.872 7.78503C170.795 7.87748 170.741 7.98019 170.711 8.09318V9.14859C170.762 9.27185 170.829 9.3874 170.911 9.49525C170.993 9.60311 171.083 9.69555 171.181 9.77259C171.283 9.84962 171.394 9.91125 171.512 9.95748C171.63 10.0037 171.751 10.0268 171.874 10.0268Z" fill="white"/>
<path d="M174.773 11.4982C174.86 11.565 174.945 11.6112 175.027 11.6369C175.109 11.6626 175.191 11.6754 175.274 11.6754C175.407 11.6754 175.525 11.6009 175.628 11.452C175.736 11.3082 175.838 11.0488 175.936 10.6739L174.28 6.64488H175.15L176.398 9.92666L177.508 6.64488H178.309L176.637 11.2132C176.473 11.66 176.288 11.9707 176.082 12.1453C175.882 12.3199 175.638 12.4073 175.351 12.4073C175.227 12.4073 175.119 12.3944 175.027 12.3687C174.935 12.3431 174.85 12.2968 174.773 12.2301V11.4982Z" fill="white"/>
<path d="M178.833 7.06859C179.007 6.90424 179.2 6.78098 179.41 6.69881C179.626 6.61664 179.855 6.57555 180.096 6.57555C180.276 6.57555 180.44 6.59866 180.589 6.64488C180.743 6.69111 180.874 6.75787 180.982 6.84518C181.095 6.92735 181.182 7.03264 181.244 7.16103C181.305 7.28429 181.336 7.42552 181.336 7.58473C181.336 7.81071 181.275 8.00587 181.151 8.17022C181.033 8.32943 180.866 8.42444 180.651 8.45525C180.943 8.50148 181.169 8.6196 181.329 8.80962C181.488 8.99451 181.567 9.22819 181.567 9.51066C181.567 9.69555 181.529 9.86503 181.452 10.0191C181.38 10.168 181.277 10.299 181.144 10.412C181.01 10.5198 180.851 10.6046 180.666 10.6662C180.481 10.7227 180.278 10.751 180.057 10.751C179.477 10.751 179.028 10.5558 178.709 10.1655L179.133 9.60311C179.344 9.89071 179.641 10.0345 180.027 10.0345C180.258 10.0345 180.435 9.98572 180.558 9.88814C180.687 9.78543 180.751 9.63649 180.751 9.44133C180.751 8.99451 180.43 8.77111 179.788 8.77111H179.503V8.21644H179.788C180.034 8.21644 180.227 8.16508 180.366 8.06236C180.504 7.95965 180.574 7.82355 180.574 7.65407C180.574 7.5154 180.522 7.40755 180.42 7.33051C180.322 7.24834 180.188 7.20725 180.019 7.20725C179.742 7.20725 179.475 7.32024 179.218 7.54622L178.833 7.06859Z" fill="white"/>
<path d="M183.315 9.47214L185.379 6.64488H186.027V10.6739H185.195V7.90829L183.168 10.6739H182.483V6.64488H183.315V9.47214Z" fill="white"/>
<path d="M188.998 10.6739H188.166V7.37673H186.856V6.64488H190.307V7.37673H188.998V10.6739Z" fill="white"/>
<path d="M192.749 10.751C192.436 10.751 192.151 10.697 191.894 10.5892C191.637 10.4762 191.416 10.3247 191.231 10.1347C191.052 9.94464 190.91 9.7238 190.808 9.47214C190.71 9.22049 190.661 8.95343 190.661 8.67096C190.661 8.38849 190.71 8.12143 190.808 7.86977C190.91 7.61298 191.052 7.38957 191.231 7.19955C191.416 7.00439 191.637 6.85288 191.894 6.74503C192.151 6.63204 192.438 6.57555 192.757 6.57555C193.07 6.57555 193.352 6.63204 193.604 6.74503C193.861 6.85802 194.079 7.00952 194.259 7.19955C194.439 7.38444 194.575 7.60271 194.667 7.85436C194.765 8.10088 194.813 8.36024 194.813 8.63244C194.813 8.69407 194.811 8.75313 194.806 8.80962C194.801 8.86098 194.796 8.90464 194.79 8.94059H191.563C191.578 9.12034 191.619 9.28212 191.686 9.42592C191.758 9.56972 191.848 9.69555 191.955 9.8034C192.068 9.90612 192.194 9.98572 192.333 10.0422C192.477 10.0987 192.626 10.127 192.78 10.127C192.893 10.127 193.003 10.1141 193.111 10.0884C193.224 10.0576 193.327 10.0165 193.419 9.96518C193.512 9.90869 193.594 9.84192 193.666 9.76488C193.738 9.68785 193.794 9.60311 193.835 9.51066L194.559 9.71866C194.421 10.0217 194.189 10.2708 193.866 10.4659C193.548 10.6559 193.175 10.751 192.749 10.751ZM193.974 8.3551C193.958 8.18562 193.915 8.02898 193.843 7.88518C193.776 7.74138 193.689 7.62069 193.581 7.52311C193.473 7.42039 193.347 7.34078 193.203 7.28429C193.06 7.2278 192.908 7.19955 192.749 7.19955C192.59 7.19955 192.438 7.2278 192.294 7.28429C192.156 7.34078 192.032 7.42039 191.925 7.52311C191.817 7.62069 191.729 7.74138 191.663 7.88518C191.596 8.02898 191.555 8.18562 191.539 8.3551H193.974Z" fill="white"/>
<path d="M199.943 6.64488C200.086 6.64488 200.22 6.67056 200.343 6.72192C200.472 6.77328 200.579 6.84518 200.667 6.93762C200.759 7.02493 200.831 7.13022 200.882 7.25348C200.934 7.37673 200.959 7.5077 200.959 7.64636C200.959 7.82098 200.916 7.99817 200.829 8.17792C200.741 8.35254 200.592 8.4835 200.382 8.57081C200.613 8.63757 200.793 8.7557 200.921 8.92518C201.055 9.08952 201.121 9.30266 201.121 9.56459C201.121 9.91896 200.998 10.1937 200.751 10.3889C200.505 10.5789 200.179 10.6739 199.773 10.6739H197.747V6.64488H199.943ZM199.573 8.3474C199.742 8.3474 199.876 8.30118 199.973 8.20873C200.076 8.11115 200.127 7.97249 200.127 7.79273C200.127 7.6438 200.086 7.51797 200.004 7.41525C199.922 7.31254 199.791 7.26118 199.611 7.26118H198.579V8.3474H199.573ZM199.696 10.0576C199.876 10.0576 200.017 10.0011 200.12 9.88814C200.228 9.77002 200.282 9.63135 200.282 9.47214C200.282 9.31293 200.23 9.17683 200.127 9.06385C200.03 8.95086 199.891 8.89436 199.711 8.89436H198.579V10.0576H199.696Z" fill="white"/>
</svg>
